<svg xmlns="http://www.w3.org/2000/svg" viewBox="0 0 562.64 904.91"><defs><style>.cls-1{font-size:16px;font-family:MyriadPro-BoldIt, Myriad Pro;}.cls-2,.cls-8{font-weight:700;}.cls-2{font-style:italic;}.cls-3{letter-spacing:-0.07em;}.cls-4{letter-spacing:0em;}.cls-5{letter-spacing:0em;}.cls-6{letter-spacing:0em;}.cls-7{letter-spacing:0em;}.cls-8{font-family:MyriadPro-Bold, Myriad Pro;}.cls-9{letter-spacing:-0.01em;}.cls-10{letter-spacing:-0.01em;}.cls-11{letter-spacing:0em;}.cls-12{letter-spacing:0em;}.cls-13{letter-spacing:0.02em;}.cls-14{letter-spacing:-0.01em;}.cls-15{letter-spacing:0em;}.cls-16{letter-spacing:0em;}.cls-17,.cls-67{font-family:MyriadPro-Regular, Myriad Pro;}.cls-18{letter-spacing:-0.01em;}.cls-19{letter-spacing:-0.01em;}.cls-20{letter-spacing:0.01em;}.cls-21{letter-spacing:-0.01em;}.cls-22{letter-spacing:0em;}.cls-23{letter-spacing:-0.01em;}.cls-24{letter-spacing:0.02em;}.cls-25{letter-spacing:-0.01em;}.cls-26{letter-spacing:0.02em;}.cls-27{letter-spacing:0.01em;}.cls-28{letter-spacing:-0.01em;}.cls-29{letter-spacing:0em;}.cls-30{letter-spacing:0em;}.cls-31{letter-spacing:0.02em;}.cls-32{letter-spacing:-0.02em;}.cls-33{letter-spacing:0.01em;}.cls-34{letter-spacing:0em;}.cls-35{letter-spacing:-0.04em;}.cls-36{letter-spacing:-0.05em;}.cls-37{letter-spacing:0.01em;}.cls-38{letter-spacing:-0.01em;}.cls-39{letter-spacing:-0.01em;}.cls-40{letter-spacing:0em;}.cls-41{letter-spacing:-0.01em;}.cls-42{letter-spacing:-0.09em;}.cls-43{letter-spacing:0.01em;}.cls-44{letter-spacing:0.01em;}.cls-45{letter-spacing:0.01em;}.cls-46{letter-spacing:-0.02em;}.cls-47{letter-spacing:0em;}.cls-48{letter-spacing:0em;}.cls-49{letter-spacing:-0.04em;}.cls-50{letter-spacing:-0.04em;}.cls-51{letter-spacing:-0.03em;}.cls-52{letter-spacing:-0.01em;}.cls-53{letter-spacing:-0.01em;}.cls-54{letter-spacing:0em;}.cls-55{letter-spacing:-0.05em;}.cls-56{letter-spacing:-0.02em;}.cls-57{letter-spacing:-0.01em;}.cls-58{letter-spacing:-0.01em;}.cls-59{letter-spacing:-0.03em;}.cls-60{letter-spacing:0.01em;}.cls-61{letter-spacing:0.01em;}.cls-62{letter-spacing:0.02em;}.cls-63{letter-spacing:-0.01em;}.cls-64,.cls-67{letter-spacing:-0.02em;}.cls-65{letter-spacing:0.01em;}.cls-66{letter-spacing:-0.01em;}.cls-68{letter-spacing:-0.02em;}.cls-69{letter-spacing:0.01em;}</style></defs><title>Asset 3</title><g id="Layer_2" data-name="Layer 2"><g id="Layer_1-2" data-name="Layer 1"><text class="cls-1" transform="translate(0 13.39)"><tspan class="cls-2"><tspan class="cls-3">T</tspan><tspan class="cls-4" x="7.26" y="0">e</tspan><tspan x="15.34" y="0">ch </tspan><tspan class="cls-5" x="34.25" y="0">S</tspan><tspan class="cls-6" x="42.46" y="0">p</tspan><tspan class="cls-7" x="51.53" y="0">e</tspan><tspan x="59.61" y="0">c</tspan></tspan><tspan class="cls-8"><tspan class="cls-9" x="0" y="38.4">P</tspan><tspan class="cls-10" x="9.15" y="38.4">r</tspan><tspan class="cls-11" x="15.1" y="38.4">o</tspan><tspan class="cls-12" x="24.38" y="38.4">du</tspan><tspan class="cls-13" x="43.25" y="38.4">c</tspan><tspan x="50.72" y="38.4">t Ha</tspan><tspan class="cls-10" x="79.3" y="38.4">r</tspan><tspan x="85.25" y="38.4">d</tspan><tspan class="cls-14" x="94.78" y="38.4">w</tspan><tspan x="106.82" y="38.4">a</tspan><tspan class="cls-10" x="115.26" y="38.4">r</tspan><tspan x="121.22" y="38.4">e S</tspan><tspan class="cls-15" x="141.54" y="38.4">p</tspan><tspan class="cls-16" x="151.15" y="38.4">ecifi</tspan><tspan class="cls-7" x="180.61" y="38.4">c</tspan><tspan class="cls-10" x="187.89" y="38.4">a</tspan><tspan x="196.21" y="38.4">tions</tspan></tspan><tspan class="cls-17"><tspan x="0" y="76.8">.25, 49 or 61 no</tspan><tspan class="cls-18" x="101.12" y="76.8">t</tspan><tspan x="106.32" y="76.8">e </tspan><tspan class="cls-19" x="117.73" y="76.8">v</tspan><tspan x="125.26" y="76.8">eloci</tspan><tspan class="cls-20" x="156.75" y="76.8">t</tspan><tspan x="162.19" y="76.8">y sensiti</tspan><tspan class="cls-21" x="215.47" y="76.8">v</tspan><tspan x="223" y="76.8">e sy</tspan><tspan class="cls-22" x="248.28" y="76.8">n</tspan><tspan x="257.1" y="76.8">th s</tspan><tspan class="cls-20" x="281" y="76.8">t</tspan><tspan x="286.44" y="76.8">yle keyboa</tspan><tspan class="cls-23" x="357.82" y="76.8">r</tspan><tspan x="362.89" y="76.8">d</tspan><tspan x="0" y="96">.16 full</tspan><tspan class="cls-24" x="44.16" y="96">-</tspan><tspan class="cls-25" x="49.36" y="96">c</tspan><tspan x="56.43" y="96">olour </tspan><tspan class="cls-5" x="95.21" y="96">R</tspan><tspan x="103.87" y="96">GB bac</tspan><tspan class="cls-26" x="150.25" y="96">k</tspan><tspan x="158.03" y="96">lit </tspan><tspan class="cls-21" x="174.24" y="96">v</tspan><tspan class="cls-16" x="181.77" y="96">eloci</tspan><tspan class="cls-27" x="213.26" y="96">t</tspan><tspan x="218.7" y="96">y sensiti</tspan><tspan class="cls-19" x="271.98" y="96">v</tspan><tspan x="279.51" y="96">e drum pads</tspan><tspan x="0" y="115.2">.8 </tspan><tspan class="cls-26" x="14.91" y="115.2">k</tspan><tspan x="22.69" y="115.2">nobs</tspan><tspan x="0" y="134.4">.9 sliders (49 &amp; 61 no</tspan><tspan class="cls-18" x="135.66" y="134.4">t</tspan><tspan x="140.86" y="134.4">e) 1 slider (25 no</tspan><tspan class="cls-28" x="249.95" y="134.4">t</tspan><tspan x="255.15" y="134.4">e)</tspan><tspan x="0" y="153.6">.6 dedic</tspan><tspan class="cls-29" x="51.89" y="153.6">a</tspan><tspan class="cls-25" x="59.53" y="153.6">t</tspan><tspan x="64.73" y="153.6">ed t</tspan><tspan class="cls-30" x="90.46" y="153.6">r</tspan><tspan x="95.61" y="153.6">anspo</tspan><tspan class="cls-31" x="136.43" y="153.6">r</tspan><tspan x="142.05" y="153.6">t </tspan><tspan class="cls-25" x="150.73" y="153.6">c</tspan><tspan x="157.81" y="153.6">o</tspan><tspan class="cls-22" x="166.59" y="153.6">n</tspan><tspan x="175.41" y="153.6">t</tspan><tspan class="cls-19" x="180.7" y="153.6">r</tspan><tspan x="185.77" y="153.6">ols</tspan><tspan x="0" y="172.8">.</tspan><tspan class="cls-32" x="3.31" y="172.8">P</tspan><tspan x="11.57" y="172.8">i</tspan><tspan class="cls-18" x="15.31" y="172.8">t</tspan><tspan x="20.51" y="172.8">ch bend and modul</tspan><tspan class="cls-22" x="151.12" y="172.8">a</tspan><tspan x="158.77" y="172.8">tion wheels</tspan><tspan x="0" y="192">.2 o</tspan><tspan class="cls-33" x="23.7" y="192">c</tspan><tspan x="31.07" y="192">t</tspan><tspan class="cls-10" x="36.37" y="192">a</tspan><tspan class="cls-19" x="43.95" y="192">v</tspan><tspan x="51.49" y="192">e / t</tspan><tspan class="cls-30" x="77.07" y="192">r</tspan><tspan x="82.22" y="192">anspose but</tspan><tspan class="cls-25" x="164" y="192">t</tspan><tspan x="169.2" y="192">ons</tspan><tspan x="0" y="211.2">.7 se</tspan><tspan class="cls-25" x="29.26" y="211.2">g</tspan><tspan class="cls-12" x="38.11" y="211.2">me</tspan><tspan class="cls-34" x="59.47" y="211.2">n</tspan><tspan x="68.29" y="211.2">t 3 cha</tspan><tspan class="cls-30" x="112.33" y="211.2">r</tspan><tspan x="117.49" y="211.2">a</tspan><tspan class="cls-33" x="125.2" y="211.2">c</tspan><tspan class="cls-25" x="132.57" y="211.2">t</tspan><tspan x="137.77" y="211.2">er LED displ</tspan><tspan class="cls-10" x="215.87" y="211.2">a</tspan><tspan x="223.45" y="211.2">y</tspan><tspan x="0" y="230.4">.2</tspan><tspan class="cls-35" x="11.52" y="230.4"> </tspan><tspan class="cls-36" x="14.26" y="230.4">T</tspan><tspan class="cls-30" x="21.49" y="230.4">r</tspan><tspan x="26.64" y="230.4">ack / MIDI Channel but</tspan><tspan class="cls-18" x="177.88" y="230.4">t</tspan><tspan class="cls-16" x="183.08" y="230.4">ons</tspan><tspan x="0" y="249.6">.8 mu</tspan><tspan class="cls-25" x="37.07" y="249.6">t</tspan><tspan class="cls-12" x="42.27" y="249.6">e / solo but</tspan><tspan class="cls-18" x="116.84" y="249.6">t</tspan><tspan x="122.04" y="249.6">ons plus </tspan><tspan class="cls-25" x="180.86" y="249.6">t</tspan><tspan x="186.06" y="249.6">oggle but</tspan><tspan class="cls-18" x="251.13" y="249.6">t</tspan><tspan x="256.33" y="249.6">on (49 &amp; 61 no</tspan><tspan class="cls-18" x="352.28" y="249.6">t</tspan><tspan x="357.48" y="249.6">e)</tspan><tspan x="0" y="268.8">.3 </tspan><tspan class="cls-37" x="14.91" y="268.8">I</tspan><tspan x="18.9" y="268.8">n</tspan><tspan class="cls-38" x="27.78" y="268.8">C</tspan><tspan class="cls-12" x="36.88" y="268.8">o</tspan><tspan class="cls-34" x="45.66" y="268.8">n</tspan><tspan x="54.48" y="268.8">t</tspan><tspan class="cls-21" x="59.77" y="268.8">r</tspan><tspan x="64.85" y="268.8">ol but</tspan><tspan class="cls-18" x="104.01" y="268.8">t</tspan><tspan class="cls-16" x="109.21" y="268.8">ons (49 &amp; 61 no</tspan><tspan class="cls-18" x="211.5" y="268.8">t</tspan><tspan x="216.7" y="268.8">e) 2 </tspan><tspan class="cls-37" x="244.25" y="268.8">I</tspan><tspan x="248.23" y="268.8">n</tspan><tspan class="cls-39" x="257.11" y="268.8">C</tspan><tspan x="266.22" y="268.8">o</tspan><tspan class="cls-34" x="275" y="268.8">n</tspan><tspan x="283.82" y="268.8">t</tspan><tspan class="cls-19" x="289.11" y="268.8">r</tspan><tspan class="cls-40" x="294.19" y="268.8">ol but</tspan><tspan class="cls-28" x="333.35" y="268.8">t</tspan><tspan x="338.55" y="268.8">ons (25 no</tspan><tspan class="cls-18" x="407.96" y="268.8">t</tspan><tspan x="413.16" y="268.8">e)</tspan><tspan x="0" y="288">.2 full</tspan><tspan class="cls-24" x="35.95" y="288">-</tspan><tspan class="cls-25" x="41.15" y="288">c</tspan><tspan x="48.22" y="288">olour </tspan><tspan class="cls-5" x="87.01" y="288">R</tspan><tspan x="95.66" y="288">GB bac</tspan><tspan class="cls-26" x="142.04" y="288">k</tspan><tspan x="149.82" y="288">lit </tspan><tspan class="cls-21" x="166.03" y="288">r</tspan><tspan class="cls-16" x="171.1" y="288">ound but</tspan><tspan class="cls-25" x="233.21" y="288">t</tspan><tspan x="238.41" y="288">ons</tspan><tspan x="0" y="307.2">.USB socket</tspan><tspan x="0" y="326.4">.DC p</tspan><tspan class="cls-41" x="35.74" y="326.4">o</tspan><tspan class="cls-19" x="44.41" y="326.4">w</tspan><tspan class="cls-12" x="56.03" y="326.4">er socket</tspan><tspan x="0" y="345.6">.Sustain pedal 1/4</tspan><tspan class="cls-42" x="118.3" y="345.6">”</tspan><tspan x="122.59" y="345.6" xml:space="preserve"> jack socket</tspan><tspan x="0" y="364.8">.Kensing</tspan><tspan class="cls-25" x="56.78" y="364.8">t</tspan><tspan class="cls-12" x="61.98" y="364.8">on secu</tspan><tspan class="cls-4" x="113.37" y="364.8">r</tspan><tspan x="118.67" y="364.8">i</tspan><tspan class="cls-27" x="122.41" y="364.8">t</tspan><tspan x="127.85" y="364.8">y slot</tspan></tspan><tspan class="cls-8"><tspan class="cls-43" x="0" y="403.2">S</tspan><tspan x="8.75" y="403.2">o</tspan><tspan class="cls-44" x="17.98" y="403.2">f</tspan><tspan class="cls-45" x="23.68" y="403.2">t</tspan><tspan class="cls-41" x="29.63" y="403.2">w</tspan><tspan x="41.66" y="403.2">a</tspan><tspan class="cls-10" x="50.11" y="403.2">r</tspan><tspan x="56.06" y="403.2">e </tspan><tspan class="cls-46" x="67.74" y="403.2">C</tspan><tspan class="cls-12" x="76.96" y="403.2">omp</tspan><tspan class="cls-10" x="109.52" y="403.2">a</tspan><tspan x="117.84" y="403.2">tibili</tspan><tspan class="cls-45" x="150.83" y="403.2">t</tspan><tspan x="156.78" y="403.2">y</tspan></tspan><tspan class="cls-17"><tspan class="cls-47" x="0" y="441.6">A</tspan><tspan x="9.74" y="441.6">ble</tspan><tspan class="cls-18" x="30.64" y="441.6">t</tspan><tspan x="35.84" y="441.6">on Li</tspan><tspan class="cls-19" x="68.19" y="441.6">v</tspan><tspan x="75.73" y="441.6">e Li</tspan><tspan class="cls-18" x="98.43" y="441.6">t</tspan><tspan x="103.63" y="441.6">e 9 is include</tspan><tspan class="cls-19" x="189.53" y="441.6">d</tspan><tspan x="198.4" y="441.6">.</tspan><tspan class="cls-37" x="0" y="460.8">I</tspan><tspan x="3.98" y="460.8">f </tspan><tspan class="cls-19" x="12.05" y="460.8">y</tspan><tspan x="19.42" y="460.8">ou al</tspan><tspan class="cls-19" x="51.9" y="460.8">r</tspan><tspan x="56.98" y="460.8">eady h</tspan><tspan class="cls-10" x="101.53" y="460.8">a</tspan><tspan class="cls-21" x="109.12" y="460.8">v</tspan><tspan x="116.65" y="460.8">e </tspan><tspan class="cls-47" x="128.06" y="460.8">A</tspan><tspan x="137.81" y="460.8">ble</tspan><tspan class="cls-25" x="158.7" y="460.8">t</tspan><tspan x="163.9" y="460.8">on Li</tspan><tspan class="cls-21" x="196.25" y="460.8">v</tspan><tspan x="203.79" y="460.8">e it must be </tspan><tspan class="cls-19" x="285.32" y="460.8">v</tspan><tspan x="292.86" y="460.8">ersion 9 or </tspan><tspan class="cls-28" x="366.25" y="460.8">g</tspan><tspan class="cls-23" x="375.1" y="460.8">r</tspan><tspan x="380.17" y="460.8">e</tspan><tspan class="cls-34" x="388.19" y="460.8">a</tspan><tspan class="cls-18" x="395.83" y="460.8">t</tspan><tspan x="401.03" y="460.8">er </tspan><tspan class="cls-18" x="417.67" y="460.8">t</tspan><tspan x="422.87" y="460.8">o </tspan><tspan class="cls-19" x="435.05" y="460.8">w</tspan><tspan x="446.67" y="460.8">o</tspan><tspan class="cls-48" x="455.45" y="460.8">r</tspan><tspan x="460.74" y="460.8">k with Launch</tspan><tspan x="553.73" y="460.8">-</tspan><tspan x="0" y="480">ke</tspan><tspan class="cls-49" x="15.52" y="480">y</tspan><tspan x="22.43" y="480">.</tspan><tspan class="cls-50" x="25.74" y="480"> </tspan><tspan class="cls-51" x="28.56" y="480">W</tspan><tspan x="41.57" y="480">e </tspan><tspan class="cls-21" x="52.97" y="480">r</tspan><tspan class="cls-16" x="58.05" y="480">e</tspan><tspan class="cls-18" x="66.06" y="480">c</tspan><tspan x="73.13" y="480">ommend th</tspan><tspan class="cls-29" x="152.09" y="480">a</tspan><tspan x="159.74" y="480">t </tspan><tspan class="cls-21" x="168.43" y="480">y</tspan><tspan x="175.81" y="480">ou upd</tspan><tspan class="cls-22" x="223.74" y="480">a</tspan><tspan class="cls-25" x="231.39" y="480">t</tspan><tspan x="236.59" y="480">e </tspan><tspan class="cls-18" x="248" y="480">t</tspan><tspan x="253.2" y="480">o the l</tspan><tspan class="cls-34" x="294.73" y="480">a</tspan><tspan class="cls-18" x="302.38" y="480">t</tspan><tspan x="307.58" y="480">est </tspan><tspan class="cls-19" x="330.62" y="480">v</tspan><tspan x="338.15" y="480">ersion as p</tspan><tspan class="cls-19" x="409.08" y="480">r</tspan><tspan x="414.15" y="480">evious </tspan><tspan class="cls-19" x="460.94" y="480">v</tspan><tspan x="468.47" y="480">ersions of </tspan><tspan class="cls-47" x="0" y="499.2">A</tspan><tspan x="9.74" y="499.2">ble</tspan><tspan class="cls-18" x="30.64" y="499.2">t</tspan><tspan x="35.84" y="499.2">on Li</tspan><tspan class="cls-19" x="68.19" y="499.2">v</tspan><tspan x="75.73" y="499.2">e do not include the Launchkey i</tspan><tspan class="cls-34" x="292.28" y="499.2">n</tspan><tspan class="cls-18" x="301.1" y="499.2">t</tspan><tspan x="306.3" y="499.2">e</tspan><tspan class="cls-18" x="314.31" y="499.2">g</tspan><tspan class="cls-52" x="323.16" y="499.2">r</tspan><tspan class="cls-22" x="328.31" y="499.2">a</tspan><tspan x="335.96" y="499.2">tion </tspan><tspan class="cls-53" x="366.06" y="499.2">f</tspan><tspan x="370.52" y="499.2">or </tspan><tspan class="cls-37" x="387.93" y="499.2">I</tspan><tspan x="391.91" y="499.2">n</tspan><tspan class="cls-39" x="400.79" y="499.2">C</tspan><tspan x="409.9" y="499.2">o</tspan><tspan class="cls-34" x="418.68" y="499.2">n</tspan><tspan x="427.5" y="499.2">t</tspan><tspan class="cls-23" x="432.79" y="499.2">r</tspan><tspan class="cls-54" x="437.87" y="499.2">o</tspan><tspan class="cls-23" x="446.65" y="499.2">l</tspan><tspan x="450.27" y="499.2">. Launchkey will </tspan><tspan x="0" y="518.4">also </tspan><tspan class="cls-21" x="30" y="518.4">w</tspan><tspan class="cls-16" x="41.62" y="518.4">o</tspan><tspan class="cls-4" x="50.4" y="518.4">r</tspan><tspan x="55.69" y="518.4">k as a standa</tspan><tspan class="cls-21" x="140.09" y="518.4">r</tspan><tspan x="145.17" y="518.4">d MIDI </tspan><tspan class="cls-18" x="192.14" y="518.4">c</tspan><tspan x="199.21" y="518.4">o</tspan><tspan class="cls-34" x="208" y="518.4">n</tspan><tspan x="216.81" y="518.4">t</tspan><tspan class="cls-21" x="222.11" y="518.4">r</tspan><tspan class="cls-16" x="227.18" y="518.4">olle</tspan><tspan class="cls-55" x="251.53" y="518.4">r</tspan><tspan x="255.91" y="518.4">.</tspan></tspan><tspan class="cls-8"><tspan class="cls-56" x="0" y="556.8">P</tspan><tspan class="cls-57" x="8.91" y="556.8">o</tspan><tspan class="cls-58" x="18" y="556.8">w</tspan><tspan x="29.9" y="556.8">er Requi</tspan><tspan class="cls-10" x="88.83" y="556.8">r</tspan><tspan x="94.78" y="556.8">eme</tspan><tspan class="cls-18" x="125.44" y="556.8">n</tspan><tspan x="134.72" y="556.8">ts</tspan></tspan><tspan class="cls-17"><tspan class="cls-59" x="0" y="595.2">F</tspan><tspan class="cls-16" x="7.23" y="595.2">ully USB bus p</tspan><tspan class="cls-14" x="101.58" y="595.2">o</tspan><tspan class="cls-21" x="110.25" y="595.2">w</tspan><tspan x="121.87" y="595.2">e</tspan><tspan class="cls-19" x="129.89" y="595.2">r</tspan><tspan class="cls-12" x="134.96" y="595.2">ed on </tspan><tspan class="cls-60" x="176.45" y="595.2">M</tspan><tspan x="189.4" y="595.2">ac or PC.</tspan><tspan class="cls-41" x="0" y="614.4">C</tspan><tspan x="9.17" y="614.4">ame</tspan><tspan class="cls-52" x="38.24" y="614.4">r</tspan><tspan x="43.39" y="614.4">a </tspan><tspan class="cls-25" x="54.5" y="614.4">c</tspan><tspan x="61.57" y="614.4">onne</tspan><tspan class="cls-61" x="96.13" y="614.4">c</tspan><tspan x="103.5" y="614.4">tion </tspan><tspan class="cls-62" x="133.6" y="614.4">k</tspan><tspan x="141.38" y="614.4">it or USB came</tspan><tspan class="cls-52" x="237.76" y="614.4">r</tspan><tspan x="242.91" y="614.4">a adap</tspan><tspan class="cls-18" x="287.56" y="614.4">t</tspan><tspan x="292.76" y="614.4">er </tspan><tspan class="cls-19" x="309.4" y="614.4">r</tspan><tspan x="314.48" y="614.4">equi</tspan><tspan class="cls-19" x="344.06" y="614.4">r</tspan><tspan x="349.13" y="614.4">ed </tspan><tspan class="cls-63" x="369.56" y="614.4">f</tspan><tspan class="cls-54" x="374.03" y="614.4">or use with iOS devi</tspan><tspan class="cls-18" x="505.61" y="614.4">c</tspan><tspan x="512.68" y="614.4">es (not </tspan><tspan x="0" y="633.6">included). </tspan><tspan class="cls-64" x="69.7" y="633.6">P</tspan><tspan class="cls-41" x="77.81" y="633.6">o</tspan><tspan class="cls-21" x="86.48" y="633.6">w</tspan><tspan class="cls-16" x="98.1" y="633.6">er supply must also be used (not included).</tspan><tspan class="cls-65" x="0" y="652.8">M</tspan><tspan x="12.96" y="652.8">aximum p</tspan><tspan class="cls-66" x="79.82" y="652.8">o</tspan><tspan class="cls-19" x="88.5" y="652.8">w</tspan><tspan x="100.11" y="652.8">er </tspan><tspan class="cls-18" x="116.75" y="652.8">c</tspan><tspan x="123.82" y="652.8">onsumption 9V DC 250mA </tspan></tspan><tspan class="cls-67"><tspan x="0" y="672">P</tspan><tspan class="cls-41" x="8.11" y="672">o</tspan><tspan class="cls-21" x="16.78" y="672">w</tspan><tspan class="cls-16" x="28.4" y="672">er supply not included</tspan></tspan><tspan class="cls-8"><tspan class="cls-9" x="0" y="710.4">P</tspan><tspan class="cls-10" x="9.15" y="710.4">r</tspan><tspan class="cls-11" x="15.1" y="710.4">o</tspan><tspan class="cls-12" x="24.38" y="710.4">du</tspan><tspan class="cls-13" x="43.25" y="710.4">c</tspan><tspan x="50.72" y="710.4">t </tspan><tspan class="cls-4" x="59.82" y="710.4">D</tspan><tspan x="71.02" y="710.4">imensions</tspan></tspan><tspan class="cls-17"><tspan x="0" y="748.8">.Launchkey 25: 450mm length x 270mm depth x 90mm heig</tspan><tspan class="cls-22" x="399.86" y="748.8">h</tspan><tspan class="cls-54" x="408.68" y="748.8">t</tspan><tspan x="0" y="768">.Launchkey 49: 775mm length x 270mm depth x 90mm heig</tspan><tspan class="cls-22" x="399.86" y="768">h</tspan><tspan class="cls-54" x="408.68" y="768">t</tspan><tspan x="0" y="787.2">.Launchkey 61: 940mm length x 270mm depth x 90mm heig</tspan><tspan class="cls-22" x="399.86" y="787.2">h</tspan><tspan class="cls-54" x="408.68" y="787.2">t</tspan></tspan><tspan class="cls-8"><tspan x="0" y="825.6">OS </tspan><tspan class="cls-68" x="23.34" y="825.6">C</tspan><tspan class="cls-16" x="32.56" y="825.6">omp</tspan><tspan class="cls-10" x="65.12" y="825.6">a</tspan><tspan x="73.44" y="825.6">tibili</tspan><tspan class="cls-6" x="106.43" y="825.6">t</tspan><tspan x="112.38" y="825.6">y</tspan></tspan><tspan class="cls-17"><tspan x="0" y="883.2">OS </tspan><tspan class="cls-18" x="22.3" y="883.2">c</tspan><tspan x="29.38" y="883.2">omp</tspan><tspan class="cls-34" x="60.61" y="883.2">a</tspan><tspan x="68.25" y="883.2">tibil</tspan><tspan class="cls-20" x="93.92" y="883.2">t</tspan><tspan x="99.36" y="883.2">y not </tspan><tspan class="cls-19" x="136.64" y="883.2">r</tspan><tspan class="cls-12" x="141.71" y="883.2">ele</tspan><tspan class="cls-29" x="161.52" y="883.2">v</tspan><tspan x="169.15" y="883.2">a</tspan><tspan class="cls-34" x="176.86" y="883.2">n</tspan><tspan x="185.68" y="883.2">t </tspan><tspan class="cls-53" x="194.37" y="883.2">f</tspan><tspan x="198.83" y="883.2">or this p</tspan><tspan class="cls-19" x="252.99" y="883.2">r</tspan><tspan x="258.06" y="883.2">odu</tspan><tspan class="cls-33" x="284.69" y="883.2">c</tspan><tspan x="292.06" y="883.2">t </tspan><tspan class="cls-52" x="300.75" y="883.2">r</tspan><tspan x="305.9" y="883.2">ange/</tspan><tspan class="cls-69" x="344.94" y="883.2">t</tspan><tspan class="cls-54" x="350.38" y="883.2">ype</tspan></tspan></text></g></g></svg>