<svg xmlns="http://www.w3.org/2000/svg" viewBox="0 0 428.16 84.22"><defs><style>.cls-1{font-size:16px;font-family:MyriadPro-Bold, Myriad Pro;}.cls-2{font-weight:700;}.cls-3{letter-spacing:-0.01em;}.cls-4{letter-spacing:0.02em;}.cls-5{letter-spacing:0em;}.cls-6{letter-spacing:-0.01em;}.cls-7{letter-spacing:0em;}.cls-8{font-size:13px;font-family:MyriadPro-Regular, Myriad Pro;}.cls-9{letter-spacing:-0.01em;}.cls-10{letter-spacing:-0.01em;}.cls-11{letter-spacing:-0.01em;}.cls-12{letter-spacing:0em;}.cls-13{letter-spacing:0em;}.cls-14{letter-spacing:0em;}.cls-15{letter-spacing:0em;}.cls-16{letter-spacing:-0.01em;}.cls-17{letter-spacing:0.01em;}.cls-18{letter-spacing:0.02em;}.cls-19{letter-spacing:0.03em;}.cls-20{letter-spacing:0.02em;}.cls-21{letter-spacing:0.02em;}.cls-22{letter-spacing:0.01em;}.cls-23{letter-spacing:-0.01em;}</style></defs><title>Asset 2</title><g id="Layer_2" data-name="Layer 2"><g id="Layer_1-2" data-name="Layer 1"><text class="cls-1" transform="translate(0 13.39)"><tspan class="cls-2"><tspan class="cls-3">S</tspan><tspan x="8.56" y="0">ta</tspan><tspan class="cls-4" x="22.88" y="0">r</tspan><tspan x="29.3" y="0">t </tspan><tspan class="cls-5" x="38.4" y="0">I</tspan><tspan x="43.01" y="0">mmedi</tspan><tspan class="cls-6" x="92.9" y="0">a</tspan><tspan class="cls-7" x="101.22" y="0">t</tspan><tspan x="107.01" y="0">ely</tspan></tspan><tspan class="cls-8"><tspan x="0" y="34.8">Launchkey is fully USB bus-p</tspan><tspan class="cls-9" x="153.94" y="34.8">o</tspan><tspan class="cls-10" x="160.99" y="34.8">w</tspan><tspan x="170.43" y="34.8">e</tspan><tspan class="cls-10" x="176.94" y="34.8">r</tspan><tspan x="181.06" y="34.8">ed and class </tspan><tspan class="cls-11" x="249.44" y="34.8">c</tspan><tspan x="255.19" y="34.8">omplia</tspan><tspan class="cls-12" x="292.94" y="34.8">n</tspan><tspan class="cls-13" x="300.1" y="34.8">t</tspan><tspan x="304.36" y="34.8">, so it </tspan><tspan class="cls-10" x="334.95" y="34.8">w</tspan><tspan x="344.39" y="34.8">o</tspan><tspan class="cls-14" x="351.53" y="34.8">r</tspan><tspan x="355.83" y="34.8">ks st</tspan><tspan class="cls-15" x="379.28" y="34.8">r</tspan><tspan x="383.47" y="34.8">aig</tspan><tspan class="cls-12" x="400.04" y="34.8">h</tspan><tspan x="407.21" y="34.8">t </tspan><tspan class="cls-16" x="0" y="50.4">a</tspan><tspan class="cls-12" x="6.16" y="50.4">w</tspan><tspan class="cls-16" x="15.68" y="50.4">a</tspan><tspan x="21.84" y="50.4">y without p</tspan><tspan class="cls-9" x="83.6" y="50.4">o</tspan><tspan class="cls-10" x="90.65" y="50.4">w</tspan><tspan x="100.09" y="50.4">er supplies or d</tspan><tspan class="cls-14" x="182.71" y="50.4">r</tspan><tspan x="187.02" y="50.4">i</tspan><tspan class="cls-10" x="190.06" y="50.4">v</tspan><tspan x="196.18" y="50.4">ers on </tspan><tspan class="cls-17" x="231.96" y="50.4">M</tspan><tspan x="242.49" y="50.4">ac or PC. </tspan><tspan class="cls-18" x="291.38" y="50.4">I</tspan><tspan x="294.69" y="50.4">t also </tspan><tspan class="cls-11" x="326.13" y="50.4">c</tspan><tspan x="331.87" y="50.4">omes with e</tspan><tspan class="cls-10" x="397.66" y="50.4">v</tspan><tspan x="403.79" y="50.4">e</tspan><tspan class="cls-19" x="410.3" y="50.4">r</tspan><tspan x="414.88" y="50.4">y</tspan><tspan x="421" y="50.4">-</tspan><tspan x="0" y="66">thing </tspan><tspan class="cls-10" x="31.8" y="66">y</tspan><tspan x="37.79" y="66">ou need </tspan><tspan class="cls-11" x="85.17" y="66">t</tspan><tspan x="89.4" y="66">o sta</tspan><tspan class="cls-20" x="115.01" y="66">r</tspan><tspan x="119.57" y="66">t ma</tspan><tspan class="cls-21" x="143.74" y="66">k</tspan><tspan x="150.06" y="66">ing ele</tspan><tspan class="cls-22" x="186.43" y="66">c</tspan><tspan x="192.42" y="66">t</tspan><tspan class="cls-10" x="196.72" y="66">r</tspan><tspan x="200.85" y="66">onic musi</tspan><tspan class="cls-23" x="253.01" y="66">c</tspan><tspan x="258.71" y="66">.</tspan></tspan></text></g></g></svg>