<svg xmlns="http://www.w3.org/2000/svg" viewBox="0 0 439.66 140.16"><defs><style>.cls-1{font-size:13px;font-family:MyriadPro-Regular, Myriad Pro;}.cls-2{letter-spacing:0em;}.cls-3{letter-spacing:-0.01em;}.cls-4{letter-spacing:-0.01em;}.cls-5{letter-spacing:0em;}.cls-6{letter-spacing:-0.01em;}.cls-7{letter-spacing:-0.01em;}.cls-8{letter-spacing:0.01em;}.cls-9{letter-spacing:0em;}.cls-10{letter-spacing:-0.01em;}.cls-11{letter-spacing:-0.01em;}.cls-12{letter-spacing:0.01em;}.cls-13{letter-spacing:-0.01em;}.cls-14{letter-spacing:-0.05em;}.cls-15{letter-spacing:0.02em;}.cls-16{letter-spacing:0.02em;}.cls-17{letter-spacing:-0.07em;}.cls-18{letter-spacing:0.01em;}.cls-19{letter-spacing:-0.01em;}.cls-20{letter-spacing:0.03em;}.cls-21{letter-spacing:-0.01em;}.cls-22{letter-spacing:0em;}.cls-23{letter-spacing:0em;}.cls-24{letter-spacing:-0.05em;}.cls-25{letter-spacing:-0.08em;}.cls-26{letter-spacing:-0.01em;}.cls-27{letter-spacing:-0.01em;}.cls-28{letter-spacing:0.02em;}.cls-29{letter-spacing:-0.01em;}.cls-30{letter-spacing:0.02em;}.cls-31{letter-spacing:0em;}.cls-32{letter-spacing:-0.01em;}.cls-33{letter-spacing:-0.05em;}.cls-34{letter-spacing:-0.01em;}.cls-35{letter-spacing:-0.03em;}.cls-36{letter-spacing:0.02em;}.cls-37{letter-spacing:0.01em;}.cls-38{letter-spacing:-0.02em;}</style></defs><title>Asset 1</title><g id="Layer_2" data-name="Layer 2"><g id="Layer_1-2" data-name="Layer 1"><text class="cls-1" transform="translate(0 10.88)">Esse<tspan class="cls-2" x="23.2" y="0">n</tspan><tspan x="30.37" y="0">tial keyboa</tspan><tspan class="cls-3" x="89.33" y="0">r</tspan><tspan x="93.46" y="0">d </tspan><tspan class="cls-4" x="103.54" y="0">c</tspan><tspan x="109.29" y="0">o</tspan><tspan class="cls-5" x="116.43" y="0">n</tspan><tspan x="123.59" y="0">t</tspan><tspan class="cls-6" x="127.89" y="0">r</tspan><tspan x="132.01" y="0">oller </tspan><tspan class="cls-7" x="158.8" y="0">f</tspan><tspan x="162.43" y="0">or p</tspan><tspan class="cls-3" x="183.97" y="0">r</tspan><tspan x="188.09" y="0">oducing ele</tspan><tspan class="cls-8" x="251.92" y="0">c</tspan><tspan x="257.92" y="0">t</tspan><tspan class="cls-6" x="262.22" y="0">r</tspan><tspan x="266.34" y="0">onic music in </tspan><tspan class="cls-9" x="340.1" y="0">A</tspan><tspan x="348.02" y="0">ble</tspan><tspan class="cls-10" x="364.99" y="0">t</tspan><tspan x="369.22" y="0">on Li</tspan><tspan class="cls-6" x="395.5" y="0">v</tspan><tspan class="cls-11" x="401.63" y="0">e</tspan><tspan x="407.98" y="0">.</tspan><tspan x="0" y="15.6">Launchkey is our eas</tspan><tspan class="cls-2" x="111.49" y="15.6">y</tspan><tspan x="117.56" y="15.6">-</tspan><tspan class="cls-10" x="121.55" y="15.6">t</tspan><tspan class="cls-12" x="125.77" y="15.6">o</tspan><tspan x="133.1" y="15.6">-use MIDI keyboa</tspan><tspan class="cls-6" x="226.29" y="15.6">r</tspan><tspan x="230.41" y="15.6">d </tspan><tspan class="cls-10" x="240.49" y="15.6">c</tspan><tspan x="246.24" y="15.6">o</tspan><tspan class="cls-2" x="253.38" y="15.6">n</tspan><tspan x="260.54" y="15.6">t</tspan><tspan class="cls-13" x="264.84" y="15.6">r</tspan><tspan x="268.96" y="15.6">olle</tspan><tspan class="cls-14" x="288.75" y="15.6">r</tspan><tspan x="292.31" y="15.6">. </tspan><tspan class="cls-15" x="297.76" y="15.6">I</tspan><tspan class="cls-16" x="301.07" y="15.6">t</tspan><tspan class="cls-17" x="305.65" y="15.6">’</tspan><tspan x="307.4" y="15.6">s p</tspan><tspan class="cls-6" x="322.7" y="15.6">r</tspan><tspan x="326.82" y="15.6">et</tspan><tspan class="cls-18" x="337.64" y="15.6">t</tspan><tspan x="342.06" y="15.6">y much the quick</tspan><tspan x="434.97" y="15.6">-</tspan><tspan x="0" y="31.2">est and easiest </tspan><tspan class="cls-2" x="81.98" y="31.2">w</tspan><tspan class="cls-19" x="91.49" y="31.2">a</tspan><tspan x="97.65" y="31.2">y </tspan><tspan class="cls-10" x="106.53" y="31.2">t</tspan><tspan x="110.76" y="31.2">o p</tspan><tspan class="cls-6" x="128.05" y="31.2">r</tspan><tspan x="132.17" y="31.2">odu</tspan><tspan class="cls-10" x="153.8" y="31.2">c</tspan><tspan x="159.55" y="31.2">e and pe</tspan><tspan class="cls-20" x="206.29" y="31.2">r</tspan><tspan class="cls-21" x="210.93" y="31.2">f</tspan><tspan x="214.56" y="31.2">o</tspan><tspan class="cls-22" x="221.7" y="31.2">r</tspan><tspan x="226" y="31.2">m ele</tspan><tspan class="cls-8" x="255.69" y="31.2">c</tspan><tspan x="261.69" y="31.2">t</tspan><tspan class="cls-6" x="265.99" y="31.2">r</tspan><tspan x="270.11" y="31.2">onic musi</tspan><tspan class="cls-6" x="322.28" y="31.2">c</tspan><tspan x="327.97" y="31.2">, especially in </tspan><tspan class="cls-9" x="402.15" y="31.2">A</tspan><tspan x="410.06" y="31.2">ble</tspan><tspan x="427.04" y="31.2">-</tspan><tspan class="cls-10" x="0" y="46.8">t</tspan><tspan x="4.22" y="46.8">on Li</tspan><tspan class="cls-6" x="30.51" y="46.8">v</tspan><tspan x="36.63" y="46.8">e – because </tspan><tspan class="cls-6" x="102.74" y="46.8">w</tspan><tspan x="112.17" y="46.8">e desi</tspan><tspan class="cls-4" x="143.48" y="46.8">g</tspan><tspan x="150.67" y="46.8">ned it specifically </tspan><tspan class="cls-21" x="246.41" y="46.8">f</tspan><tspan x="250.04" y="46.8">or the pu</tspan><tspan class="cls-23" x="299.53" y="46.8">r</tspan><tspan x="303.83" y="46.8">pos</tspan><tspan class="cls-11" x="323.51" y="46.8">e</tspan><tspan x="329.87" y="46.8">.</tspan><tspan class="cls-24" x="332.56" y="46.8"> </tspan><tspan class="cls-25" x="334.72" y="46.8">Y</tspan><tspan x="340.76" y="46.8">ou just plug in via </tspan><tspan x="0" y="62.4">USB and the ke</tspan><tspan class="cls-10" x="81.59" y="62.4">y</tspan><tspan class="cls-26" x="87.63" y="62.4">s</tspan><tspan x="92.64" y="62.4">, fader</tspan><tspan class="cls-27" x="126.24" y="62.4">s</tspan><tspan x="131.25" y="62.4">, </tspan><tspan class="cls-28" x="136.69" y="62.4">k</tspan><tspan x="143.01" y="62.4">nobs and pads immedi</tspan><tspan class="cls-2" x="266.74" y="62.4">a</tspan><tspan class="cls-10" x="272.96" y="62.4">t</tspan><tspan x="277.18" y="62.4">ely sp</tspan><tspan class="cls-22" x="308.19" y="62.4">r</tspan><tspan x="312.49" y="62.4">ing i</tspan><tspan class="cls-2" x="335.81" y="62.4">n</tspan><tspan class="cls-10" x="342.97" y="62.4">t</tspan><tspan x="347.2" y="62.4">o li</tspan><tspan class="cls-21" x="363.2" y="62.4">f</tspan><tspan class="cls-29" x="366.83" y="62.4">e</tspan><tspan x="373.19" y="62.4">, </tspan><tspan class="cls-10" x="378.63" y="62.4">g</tspan><tspan x="385.82" y="62.4">iving </tspan><tspan class="cls-6" x="415.4" y="62.4">y</tspan><tspan x="421.39" y="62.4">ou </tspan><tspan x="0" y="78">hands</tspan><tspan class="cls-30" x="33.18" y="78">-</tspan><tspan x="37.4" y="78">on </tspan><tspan class="cls-10" x="54.51" y="78">c</tspan><tspan x="60.25" y="78">o</tspan><tspan class="cls-2" x="67.39" y="78">n</tspan><tspan x="74.55" y="78">t</tspan><tspan class="cls-6" x="78.86" y="78">r</tspan><tspan x="82.98" y="78">ol of </tspan><tspan class="cls-6" x="109.63" y="78">y</tspan><tspan x="115.62" y="78">our </tspan><tspan class="cls-10" x="136.93" y="78">g</tspan><tspan class="cls-22" x="144.12" y="78">r</tspan><tspan x="148.42" y="78">i</tspan><tspan class="cls-6" x="151.46" y="78">d</tspan><tspan x="158.66" y="78">, instrume</tspan><tspan class="cls-31" x="212.59" y="78">n</tspan><tspan x="219.75" y="78">t</tspan><tspan class="cls-26" x="224.05" y="78">s</tspan><tspan x="229.06" y="78">, e</tspan><tspan class="cls-21" x="241.02" y="78">ff</tspan><tspan x="248.43" y="78">e</tspan><tspan class="cls-8" x="254.94" y="78">c</tspan><tspan x="260.93" y="78">ts and mi</tspan><tspan class="cls-32" x="310.59" y="78">x</tspan><tspan x="316.41" y="78">e</tspan><tspan class="cls-33" x="322.93" y="78">r</tspan><tspan x="326.49" y="78">.</tspan><tspan class="cls-15" x="0" y="109.2">O</tspan><tspan x="9.17" y="109.2">f </tspan><tspan class="cls-10" x="15.72" y="109.2">c</tspan><tspan x="21.46" y="109.2">ours</tspan><tspan class="cls-34" x="45.16" y="109.2">e</tspan><tspan x="51.52" y="109.2">, if </tspan><tspan class="cls-6" x="66.56" y="109.2">y</tspan><tspan x="72.55" y="109.2">ou do</tspan><tspan class="cls-35" x="104.08" y="109.2">n</tspan><tspan class="cls-26" x="110.86" y="109.2">’</tspan><tspan x="113.41" y="109.2">t use </tspan><tspan class="cls-9" x="142.05" y="109.2">A</tspan><tspan x="149.97" y="109.2">ble</tspan><tspan class="cls-4" x="166.94" y="109.2">t</tspan><tspan x="171.17" y="109.2">on, i</tspan><tspan class="cls-36" x="194.01" y="109.2">t</tspan><tspan x="198.58" y="109.2">’ll au</tspan><tspan class="cls-10" x="223.6" y="109.2">t</tspan><tspan x="227.82" y="109.2">om</tspan><tspan class="cls-2" x="245.8" y="109.2">a</tspan><tspan x="252.01" y="109.2">tically map </tspan><tspan class="cls-10" x="313.72" y="109.2">t</tspan><tspan x="317.95" y="109.2">o other major music </tspan><tspan x="0" y="124.8">so</tspan><tspan class="cls-37" x="12.28" y="124.8">f</tspan><tspan class="cls-18" x="16.22" y="124.8">t</tspan><tspan class="cls-5" x="20.64" y="124.8">w</tspan><tspan x="30.16" y="124.8">a</tspan><tspan class="cls-6" x="36.42" y="124.8">r</tspan><tspan x="40.55" y="124.8">e </tspan><tspan class="cls-4" x="49.81" y="124.8">t</tspan><tspan x="54.04" y="124.8">o</tspan><tspan class="cls-38" x="61.18" y="124.8">o</tspan><tspan x="68" y="124.8">.</tspan></text></g></g></svg>